<svg width="33" height="32" viewBox="0 0 33 32" fill="none" xmlns="http://www.w3.org/2000/svg">
<path d="M3.83301 15.9997C3.83301 10.0286 3.83301 7.04299 5.688 5.188C7.54299 3.33301 10.5286 3.33301 16.4997 3.33301C22.4708 3.33301 25.4564 3.33301 27.3114 5.188C29.1663 7.04299 29.1663 10.0286 29.1663 15.9997C29.1663 21.9708 29.1663 24.9564 27.3114 26.8114C25.4564 28.6663 22.4708 28.6663 16.4997 28.6663C10.5286 28.6663 7.54299 28.6663 5.688 26.8114C3.83301 24.9564 3.83301 21.9708 3.83301 15.9997Z" stroke="black" stroke-width="1.875" stroke-linejoin="round"/>
<path d="M22.5 15.9995C22.5 19.3132 19.8137 21.9995 16.5 21.9995C13.1863 21.9995 10.5 19.3132 10.5 15.9995C10.5 12.6858 13.1863 9.99951 16.5 9.99951C19.8137 9.99951 22.5 12.6858 22.5 15.9995Z" stroke="black" stroke-width="1.875"/>
<path d="M23.8438 8.6665L23.8318 8.6665" stroke="black" stroke-width="1.875" stroke-linecap="round" stroke-linejoin="round"/>
</svg>
