<svg width="68" height="37" viewBox="0 0 68 37" fill="none" xmlns="http://www.w3.org/2000/svg">
<path d="M24 11.7766C24 13.8148 23.799 15.9946 23.3971 18.316C22.9952 20.6373 22.3636 22.9587 21.5024 25.2234C20.6412 27.5165 19.4928 29.6963 18.1148 31.7628C16.7368 33.8294 15.0431 35.5845 13.0622 37L5.48326 31.7628C6.74641 30.2907 7.69378 28.8753 8.35407 27.5448C9.01436 26.2142 9.5311 24.8837 9.90431 23.5249C8.49761 23.2984 7.20574 22.8454 5.97129 22.1377C4.73684 21.43 3.73206 20.5807 2.84211 19.5333C1.98086 18.4858 1.29187 17.3252 0.775119 15.9663C0.258372 14.6358 0 13.2204 0 11.7483C0 10.1913 0.31579 8.69089 0.947369 7.24713C1.57895 5.83167 2.44019 4.55776 3.5311 3.48202C4.62201 2.40627 5.88517 1.557 7.32057 0.934197C8.75598 0.311397 10.2775 0 11.9139 0C13.5502 0 15.1866 0.311397 16.6507 0.934197C18.1148 1.557 19.4067 2.40627 20.4689 3.48202C21.5311 4.55776 22.3923 5.83167 23.0239 7.24713C23.6555 8.7192 23.9713 10.2196 24 11.7766Z" fill="#C11800"/>
<path d="M68 11.7766C68 13.8148 67.799 15.9946 67.3971 18.316C66.9952 20.6373 66.3636 22.9587 65.5024 25.2234C64.6412 27.5165 63.4928 29.6963 62.1148 31.7628C60.7368 33.8294 59.0431 35.5845 57.0622 37L49.4833 31.7628C50.7464 30.2907 51.6938 28.8753 52.3541 27.5448C53.0144 26.2142 53.5311 24.8837 53.9043 23.5249C52.4976 23.2984 51.2057 22.8454 49.9713 22.1377C48.7368 21.43 47.7321 20.5807 46.8421 19.5333C45.9809 18.4858 45.2919 17.3252 44.7751 15.9663C44.2584 14.6358 44 13.2204 44 11.7483C44 10.1913 44.3158 8.69089 44.9474 7.24713C45.5789 5.83167 46.4402 4.55776 47.5311 3.48202C48.622 2.40627 49.8852 1.557 51.3206 0.934197C52.756 0.311397 54.2775 0 55.9139 0C57.5502 0 59.1866 0.311397 60.6507 0.934197C62.1148 1.557 63.4067 2.40627 64.4689 3.48202C65.5311 4.55776 66.3923 5.83167 67.0239 7.24713C67.6555 8.7192 67.9713 10.2196 68 11.7766Z" fill="#C11800"/>
</svg>
