<svg width="36" height="36" viewBox="0 0 36 36" fill="none" xmlns="http://www.w3.org/2000/svg">
<rect x="0.5" y="0.5" width="35" height="35" rx="17.5" stroke="white"/>
<path fill-rule="evenodd" clip-rule="evenodd" d="M18 10C18.5523 10 19 10.4477 19 11V25C19 25.5523 18.5523 26 18 26C17.4477 26 17 25.5523 17 25V11C17 10.4477 17.4477 10 18 10Z" fill="white"/>
<path fill-rule="evenodd" clip-rule="evenodd" d="M10 18C10 17.4477 10.4477 17 11 17H25C25.5523 17 26 17.4477 26 18C26 18.5523 25.5523 19 25 19H11C10.4477 19 10 18.5523 10 18Z" fill="white"/>
</svg>
