<svg width="32" height="32" viewBox="0 0 32 32" fill="none" xmlns="http://www.w3.org/2000/svg">
<path d="M15.9799 20.5444L20.3017 25.4581C21.903 27.2786 22.7036 28.1889 23.5416 27.9673C24.3797 27.7456 24.667 26.5477 25.2418 24.1518L28.4299 10.8612C29.315 7.1711 29.7576 5.32605 28.7738 4.416C27.79 3.50595 26.0847 4.183 22.6741 5.53709L6.85103 11.8193C4.12325 12.9023 2.75936 13.4438 2.67277 14.3745C2.66391 14.4696 2.66377 14.5655 2.67233 14.6607C2.75607 15.5916 4.1183 16.1377 6.84275 17.2298C8.07719 17.7246 8.69442 17.972 9.13696 18.4458C9.18671 18.4991 9.23455 18.5543 9.28039 18.6112C9.68813 19.1178 9.86213 19.7827 10.2101 21.1126L10.8614 23.6013C11.2 24.8954 11.3693 25.5424 11.8128 25.6306C12.2562 25.7188 12.6423 25.1823 13.4145 24.1093L15.9799 20.5444ZM15.9799 20.5444L15.5562 20.1028C15.0739 19.6002 14.8328 19.3489 14.8328 19.0366C14.8328 18.7243 15.0739 18.473 15.5562 17.9705L20.3201 13.0055" stroke="black" stroke-width="1.875" stroke-linecap="round" stroke-linejoin="round"/>
</svg>
