<svg width="33" height="32" viewBox="0 0 33 32" fill="none" xmlns="http://www.w3.org/2000/svg">
<path d="M16.4993 29.3337C23.8631 29.3337 29.8327 23.3641 29.8327 16.0003C29.8327 8.63653 23.8631 2.66699 16.4993 2.66699C9.13555 2.66699 3.16602 8.63653 3.16602 16.0003C3.16602 17.8388 3.53811 19.5904 4.21111 21.1839C4.58305 22.0645 4.76903 22.5049 4.79205 22.8376C4.81508 23.1704 4.71713 23.5365 4.52124 24.2686L3.16602 29.3337L8.23105 27.9784C8.96319 27.7825 9.32927 27.6846 9.66205 27.7076C9.99482 27.7307 10.4352 27.9166 11.3158 28.2886C12.9093 28.9616 14.6609 29.3337 16.4993 29.3337Z" stroke="black" stroke-width="1.875" stroke-linejoin="round"/>
<path d="M11.9505 16.5033L13.1118 15.061C13.6012 14.4532 14.2063 13.8872 14.2536 13.0778C14.2656 12.8734 14.1217 11.9556 13.8341 10.12C13.721 9.39858 13.0475 9.3335 12.4641 9.3335C11.7039 9.3335 11.3237 9.3335 10.9463 9.50592C10.4692 9.72384 9.97939 10.3366 9.8719 10.8499C9.78686 11.2561 9.85006 11.536 9.97645 12.0957C10.5133 14.4733 11.7728 16.8213 13.7256 18.7742C15.6785 20.7271 18.0266 21.9865 20.4041 22.5234C20.9638 22.6498 21.2437 22.713 21.6499 22.6279C22.1633 22.5204 22.776 22.0306 22.9939 21.5536C23.1663 21.1761 23.1663 20.796 23.1663 20.0357C23.1663 19.4523 23.1013 18.7788 22.3799 18.6658C20.5443 18.3781 19.6264 18.2342 19.422 18.2462C18.6126 18.2936 18.0467 18.8986 17.4388 19.388L15.9966 20.5493" stroke="black" stroke-width="1.875"/>
</svg>
